# xmcd
#
# Track frame offsets:
#        150
#        20544
#        39991
#        74407
#        97662
#        119055
#        140991
#        159798
#        185960
#        215959
#        239297
#        261956
#        287326
#
# Disc length: 4182 seconds
#
# Revision: 0
# Processed by: cddbd v1.5.1PL0 Copyright (c) Steve Scherf et al.
# Submitted via: ExactAudioCopy v0.95a5
#
DISCID=c510540d
DTITLE=Madredeus - Um Amor Infinito
DYEAR=2004
DGENRE=Pop-Folk
TTITLE0=O Luz da Alegria
TTITLE1=Cantador da Noite
TTITLE2=Uma Estatua
TTITLE3=Um Amor Infinito
TTITLE4=Palavras Ausentes
TTITLE5=Vislumbrar - O Canto Encantado
TTITLE6=Moro em Lisboa
TTITLE7=Os Males do Mundo
TTITLE8=Ao Crepusculo
TTITLE9=O Olival - A passo, a trote e a galope
TTITLE10=Reflexos de Ouro
TTITLE11=Suave Tristeza
TTITLE12=As Vezes
EXTD=
EXTT0=
EXTT1=
EXTT2=
EXTT3=
EXTT4=
EXTT5=
EXTT6=
EXTT7=
EXTT8=
EXTT9=
EXTT10=
EXTT11=
EXTT12=
PLAYORDER=
